<?xml version="1.0" encoding="iso-8859-1"?>
<!-- Generator: Adobe Illustrator 19.0.0, SVG Export Plug-In . SVG Version: 6.00 Build 0)  -->
<svg version="1.1" id="Layer_1" xmlns="http://www.w3.org/2000/svg" xmlns:xlink="http://www.w3.org/1999/xlink" x="0px" y="0px"
	 viewBox="0 0 478.229 478.229" style="enable-background:new 0 0 478.229 478.229;" xml:space="preserve">
<path style="fill:#3CC676;" d="M399.727,465.513c-40,39.2-158.4-15.2-264.8-122.4c-107.2-106.4-161.6-224.8-121.6-264.8
	c39.2-39.2,77.6,95.2,184,202.4C303.727,387.113,438.927,425.513,399.727,465.513z"/>
<path style="fill:#16B578;" d="M197.327,280.713c106.4,106.4,241.6,144.8,202.4,184c-40,40-158.4-14.4-264.8-121.6"/>
<path style="fill:#3CC676;" d="M138.127,155.113c-30.4,20.8-77.6,4.8-105.6-36c-28-40-25.6-90.4,4.8-111.2s68,1.6,96,41.6
	C161.327,91.113,168.527,134.313,138.127,155.113z"/>
<path style="fill:#16B578;" d="M133.327,50.313c28,40.8,35.2,84,4.8,104.8s-77.6,4.8-105.6-36"/>
<path style="fill:#61D690;" d="M151.727,139.913c12.8-23.2,3.2-57.6-18.4-89.6c-21.6-31.2-49.6-52-75.2-49.6
	c-13.6,12-4,50.4,20.8,87.2C103.727,123.913,134.927,145.513,151.727,139.913z"/>
<path style="fill:#3CC676;" d="M322.927,339.913c-20.8,30.4-4.8,77.6,36,105.6s90.4,26.4,111.2-4c20.8-30.4-1.6-68.8-41.6-96
	C386.927,316.713,343.727,309.513,322.927,339.913z"/>
<path style="fill:#16B578;" d="M358.927,445.513c40.8,28,90.4,26.4,111.2-4c20.8-30.4-1.6-68.8-41.6-96"/>
<path style="fill:#61D690;" d="M338.127,326.313c23.2-12.8,57.6-3.2,89.6,18.4c31.2,21.6,52,49.6,49.6,75.2
	c-12,13.6-50.4,4.8-87.2-20.8C354.127,374.313,332.527,343.113,338.127,326.313z"/>
<g>
</g>
<g>
</g>
<g>
</g>
<g>
</g>
<g>
</g>
<g>
</g>
<g>
</g>
<g>
</g>
<g>
</g>
<g>
</g>
<g>
</g>
<g>
</g>
<g>
</g>
<g>
</g>
<g>
</g>
</svg>
